HIERARCHY
ROOT Hips
{
 OFFSET 0.000000 0.000000 0.000000
 CHANNELS 6 Xposition Yposition Zposition Yrotation Xrotation Zrotation
 JOINT Chest
 {
  OFFSET 0.000000 10.732652 -1.192517
  CHANNELS 3 Yrotation Xrotation Zrotation
  JOINT Chest2
  {
   OFFSET 0.000000 11.997505 0.000000
   CHANNELS 3 Yrotation Xrotation Zrotation
   JOINT Chest3
   {
    OFFSET 0.000000 10.952384 0.009465
    CHANNELS 3 Yrotation Xrotation Zrotation
    JOINT Chest4
    {
     OFFSET 0.000000 10.940161 0.009474
     CHANNELS 3 Yrotation Xrotation Zrotation
     JOINT Neck
     {
      OFFSET 0.000000 15.318103 0.000000
      CHANNELS 3 Yrotation Xrotation Zrotation
      JOINT Head
      {
       OFFSET 0.000000 10.182869 -0.020355
       CHANNELS 3 Yrotation Xrotation Zrotation
       End Site
       {
        OFFSET 0.000000 18.958122 -0.002737
       }
      }
     }
     JOINT RightCollar
     {
      OFFSET -3.312154 8.580934 0.000000
      CHANNELS 3 Yrotation Xrotation Zrotation
      JOINT RightShoulder
      {
       OFFSET -15.294669 0.000000 0.000000
       CHANNELS 3 Yrotation Xrotation Zrotation
       JOINT RightElbow
       {
        OFFSET -32.654290 0.000000 0.000000
        CHANNELS 3 Yrotation Xrotation Zrotation
        JOINT RightWrist
        {
         OFFSET -26.708255 0.000000 0.000000
         CHANNELS 3 Yrotation Xrotation Zrotation
         JOINT Prop1
         {
          OFFSET -9.827041 -1.091893 2.183787
          CHANNELS 3 Yrotation Xrotation Zrotation
          End Site
          {
           OFFSET 0.000000 0.000000 228.224219
          }
         }
         End Site
         {
          OFFSET -19.981651 0.000000 0.000000
         }
        }
       }
      }
     }
     JOINT LeftCollar
     {
      OFFSET 3.312154 8.580934 0.000000
      CHANNELS 3 Yrotation Xrotation Zrotation
      JOINT LeftShoulder
      {
       OFFSET 15.294669 0.000000 0.000000
       CHANNELS 3 Yrotation Xrotation Zrotation
       JOINT LeftElbow
       {
        OFFSET 32.654290 0.000000 0.000000
        CHANNELS 3 Yrotation Xrotation Zrotation
        JOINT LeftWrist
        {
         OFFSET 26.708255 0.000000 0.000000
         CHANNELS 3 Yrotation Xrotation Zrotation
         End Site
         {
          OFFSET 19.981651 0.000000 0.000000
         }
        }
       }
      }
     }
    }
   }
  }
 }
 JOINT RightHip
 {
  OFFSET -8.786175 -0.021959 0.002440
  CHANNELS 3 Yrotation Xrotation Zrotation
  JOINT RightKnee
  {
   OFFSET 0.000000 -45.774904 0.002237
   CHANNELS 3 Yrotation Xrotation Zrotation
   JOINT RightAnkle
   {
    OFFSET 0.000000 -44.762185 0.003772
    CHANNELS 3 Yrotation Xrotation Zrotation
    JOINT RightToe
    {
     OFFSET 0.000000 -7.170516 16.163684
     CHANNELS 3 Yrotation Xrotation Zrotation
     End Site
     {
      OFFSET 0.000000 -1.639016 6.993137
     }
    }
   }
  }
 }
 JOINT LeftHip
 {
  OFFSET 8.786175 -0.024373 0.002708
  CHANNELS 3 Yrotation Xrotation Zrotation
  JOINT LeftKnee
  {
   OFFSET 0.000000 -45.774904 0.002237
   CHANNELS 3 Yrotation Xrotation Zrotation
   JOINT LeftAnkle
   {
    OFFSET 0.000000 -44.762185 0.003772
    CHANNELS 3 Yrotation Xrotation Zrotation
    JOINT LeftToe
    {
     OFFSET 0.000000 -7.170516 16.163684
     CHANNELS 3 Yrotation Xrotation Zrotation
     End Site
     {
      OFFSET 0.000000 -1.639016 6.993137
     }
    }
   }
  }
 }
}
MOTION
Frames: 10
Frame Time: 0.016667
7.472300 88.478463 -6.857522 -26.148628 39.692055 -5.544003 -2.007625 22.050813 0.905057 -0.968865 3.970338 0.485585 -0.980881 9.789928 0.385775 -0.708337 13.178455 0.310072 2.689149 3.245747 0.496094 5.290572 -29.963184 -0.611602 13.747672 6.548301 -5.160203 63.595757 -75.164591 8.293228 26.319578 -19.855532 -4.376360 7.910781 -0.818026 2.777182 -25.752896 12.659982 6.088067 -9.627414 4.334595 -3.771024 -55.004522 -61.709705 -7.572061 -30.133958 -21.390672 4.087819 -0.598927 -4.505663 6.397244 -26.834120 -73.758544 20.621338 -1.815688 51.802701 5.846476 -8.507355 -14.186473 0.467077 0.008009 -1.739724 -0.527521 -25.847379 -76.204477 30.660260 1.040124 53.437038 -4.458331 3.802703 -13.857139 -0.038005 -0.003539 -1.552315 0.261220
7.494760 88.532822 -6.844186 -26.082296 39.715593 -5.376256 -2.011404 21.960494 0.890044 -0.969052 3.930234 0.479000 -0.980994 9.749816 0.379186 -0.708825 13.148379 0.304975 2.679311 3.164632 0.537476 5.249238 -30.115879 -0.524218 14.121985 6.447853 -5.066843 62.554903 -75.480328 8.963558 25.971452 -19.522954 -4.207144 8.199802 -0.669773 2.634296 -25.909722 12.678247 6.210133 -9.841118 4.289392 -3.834393 -54.990312 -62.095323 -7.416157 -29.478216 -21.568440 3.280818 -1.168237 -4.816105 7.174865 -26.609122 -73.763590 20.295135 -1.795296 51.697442 5.859132 -8.462208 -14.156874 0.407287 0.007333 -1.717593 -0.489215 -25.264049 -76.153937 30.019332 1.023195 53.217901 -4.528718 3.809815 -13.799533 -0.019500 -0.003873 -1.525154 0.290951
7.534261 88.607217 -6.823571 -26.031551 39.696031 -5.199775 -2.038180 21.851025 0.856143 -0.977627 3.881664 0.465285 -0.989581 9.701231 0.364601 -0.716137 13.111965 0.293904 2.678770 3.079833 0.581261 5.225738 -30.275127 -0.437522 14.504790 6.219665 -4.980077 60.769049 -75.945604 10.438878 25.505213 -18.828615 -3.884016 8.615085 -0.505486 2.214859 -26.115278 12.652349 6.638600 -10.048061 4.196675 -3.914704 -54.808264 -62.456518 -7.405859 -28.761067 -21.973894 2.271416 -1.953822 -5.221089 8.223333 -26.227254 -73.710669 19.821311 -1.790016 51.533029 5.842678 -8.404156 -14.107964 0.346032 0.006441 -1.681028 -0.439048 -24.397875 -76.044025 29.095411 1.000714 52.932825 -4.590290 3.815987 -13.731657 -0.009099 -0.004403 -1.483547 0.340113
7.571460 88.708624 -6.799025 -26.025841 39.634169 -5.080339 -2.071742 21.735723 0.827403 -0.989708 3.830483 0.454066 -1.001726 9.650037 0.352153 -0.725984 13.073592 0.284516 2.692046 2.996637 0.616239 5.236290 -30.430494 -0.377485 14.805303 5.839745 -4.912125 58.696356 -76.228072 12.418166 24.957992 -18.158621 -3.611828 8.968789 -0.344959 1.728387 -26.220160 12.639762 7.193674 -10.160308 3.984324 -3.974131 -54.346012 -62.630164 -7.860660 -28.041829 -22.111580 1.552565 -2.754086 -5.619362 9.111833 -25.616042 -73.586190 19.184631 -1.784458 51.280002 5.837982 -8.392538 -13.988913 0.295390 0.005667 -1.672027 -0.388383 -23.456188 -75.867365 28.125996 0.947805 52.603170 -4.649486 3.841277 -13.629650 0.006649 -0.004790 -1.457960 0.376476
7.600480 88.841304 -6.774186 -26.077131 39.526195 -5.053981 -2.110451 21.615741 0.820519 -1.006077 3.777128 0.452473 -1.018206 9.596660 0.348892 -0.738500 13.033562 0.282195 2.729026 2.920532 0.630886 5.308460 -30.571020 -0.374082 14.960593 5.231700 -4.870535 56.575825 -76.154157 14.801298 24.305483 -17.653999 -3.463572 9.189673 -0.192825 1.177208 -26.166526 12.676295 7.875009 -10.123588 3.593504 -3.993399 -53.526859 -62.465896 -8.995321 -27.371137 -21.766866 1.416199 -3.498338 -6.003858 9.674195 -24.687351 -73.382486 18.332589 -1.764337 50.917153 5.877356 -8.477929 -13.772652 0.253950 0.004929 -1.708387 -0.330563 -22.517743 -75.622882 27.204082 0.832910 52.236555 -4.714599 3.897075 -13.472660 0.029012 -0.005020 -1.468199 0.391766
7.627199 89.000995 -6.745415 -26.173052 39.376003 -5.084203 -2.156133 21.489923 0.818991 -1.025993 3.721135 0.453470 -1.038251 9.540631 0.347857 -0.753528 12.991532 0.281614 2.780197 2.846211 0.637295 5.415364 -30.707421 -0.396674 15.034554 4.472874 -4.846692 54.333425 -75.888528 17.525905 23.567792 -17.176702 -3.365462 9.348052 -0.047396 0.558201 -26.011472 12.723676 8.683001 -9.990742 3.084019 -3.990552 -52.459227 -62.106147 -10.567180 -26.713012 -21.167834 1.578912 -4.232766 -6.395167 10.090744 -23.561169 -73.102453 17.350029 -1.745894 50.465603 5.925708 -8.609529 -13.486169 0.222648 0.004212 -1.772338 -0.272287 -21.529808 -75.311083 26.263165 0.688860 51.825390 -4.775430 3.971992 -13.281550 0.056837 -0.005143 -1.494466 0.394282
7.649907 89.181890 -6.705149 -26.306403 39.196052 -5.127798 -2.197784 21.368102 0.797100 -1.042285 3.667000 0.445488 -1.054628 9.486458 0.338213 -0.766357 12.950908 0.274412 2.820814 2.762697 0.659449 5.491180 -30.861965 -0.380542 15.126331 3.770140 -4.829396 52.031344 -75.615591 20.277557 22.840452 -16.696352 -3.293941 9.472492 0.077634 0.073363 -25.778174 12.724595 9.438458 -9.835359 2.561768 -3.983348 -51.273159 -61.826911 -12.239977 -26.028504 -20.482405 1.685058 -4.906093 -6.749285 10.452159 -22.473715 -72.750248 16.423971 -1.757968 49.959657 5.924779 -8.694796 -13.159846 0.217370 0.003960 -1.852495 -0.244949 -20.499925 -74.929193 25.298897 0.586713 51.368225 -4.811422 4.051861 -13.095028 0.100023 -0.004956 -1.507837 0.376644
7.666121 89.383526 -6.649327 -26.492825 38.978402 -5.178929 -2.228119 21.260813 0.736734 -1.050115 3.619515 0.420411 -1.062456 9.438952 0.312340 -0.773821 12.915323 0.254722 2.837606 2.663317 0.716311 5.496409 -31.048300 -0.277920 15.283564 3.165571 -4.813596 49.652489 -75.397398 22.998507 22.067028 -16.158209 -3.263300 9.570221 0.178646 -0.173958 -25.400216 12.608063 10.129294 -9.690484 2.018080 -3.966112 -49.956446 -61.740195 -13.961068 -25.198358 -19.629431 1.614841 -5.532775 -7.072024 10.770123 -21.486057 -72.319569 15.607880 -1.822660 49.413889 5.847985 -8.688534 -12.792815 0.258672 0.004712 -1.956557 -0.275919 -19.443773 -74.457837 24.329628 0.561828 50.863741 -4.809016 4.139740 -12.931267 0.170586 -0.004207 -1.496259 0.322218
7.678323 89.606366 -6.582010 -26.715848 38.730836 -5.242357 -2.253810 21.157265 0.656308 -1.054101 3.573811 0.386454 -1.066395 9.393240 0.277987 -0.778913 12.881108 0.228519 2.843104 2.554792 0.788742 5.468355 -31.252577 -0.135866 15.458002 2.616884 -4.804145 47.206996 -75.163993 25.752511 21.304502 -15.616975 -3.261084 9.636129 0.259369 -0.287440 -24.945495 12.443036 10.765664 -9.523898 1.461537 -3.944111 -48.481519 -61.722890 -15.813555 -24.352049 -18.684180 1.502695 -6.098105 -7.359982 11.028643 -20.548976 -71.818264 14.859392 -1.913446 48.813693 5.727429 -8.636034 -12.386069 0.326724 0.006123 -2.076774 -0.337831 -18.374868 -73.915494 23.365596 0.576656 50.313260 -4.783778 4.232433 -12.772086 0.256703 -0.003181 -1.471794 0.247622
7.692256 89.845985 -6.507813 -26.921003 38.489636 -5.291738 -2.284744 21.035352 0.584828 -1.061255 3.519916 0.356497 -1.073528 9.339339 0.247318 -0.786170 12.840745 0.205163 2.851411 2.446024 0.843290 5.457126 -31.456367 -0.032776 15.604525 2.204470 -4.806280 44.719331 -74.900762 28.483803 20.818268 -15.203473 -3.216480 9.681291 0.318589 -0.374790 -24.637420 12.384810 11.204090 -9.311331 1.023607 -3.951890 -46.921611 -61.700765 -17.695087 -23.826722 -18.042436 1.359248 -6.511942 -7.551027 11.265554 -19.713633 -71.274971 14.201544 -1.985071 48.149848 5.594384 -8.580787 -11.972900 0.377189 0.007224 -2.178564 -0.379950 -17.291269 -73.355649 22.383879 0.592353 49.719280 -4.759823 4.306495 -12.601690 0.332370 -0.002458 -1.441683 0.195335
